<?xml version="1.0" standalone="no"?>
<!DOCTYPE svg PUBLIC "-//W3C//DTD SVG 20010904//EN"
 "http://www.w3.org/TR/2001/REC-SVG-20010904/DTD/svg10.dtd">
<svg version="1.0" xmlns="http://www.w3.org/2000/svg"
 width="512.000000pt" height="512.000000pt" viewBox="0 0 512.000000 512.000000"
 preserveAspectRatio="xMidYMid meet">
<metadata>
Created by potrace 1.14, written by Peter Selinger 2001-2017
</metadata>
<g transform="translate(0.000000,512.000000) scale(0.100000,-0.100000)"
fill="#000000" stroke="none">
<path d="M2450 5105 c-50 -13 -124 -51 -310 -159 -69 -40 -233 -134 -365 -210
-132 -76 -253 -148 -270 -159 -30 -22 -34 -22 -634 -22 l-604 -1 -22 -26 -23
-26 0 -979 c0 -621 3 -988 9 -1004 6 -15 20 -32 32 -38 l22 -12 0 -502 c-1
-344 3 -519 11 -557 29 -139 100 -227 262 -324 119 -70 696 -402 782 -449 30
-17 79 -45 108 -64 29 -18 55 -33 59 -33 3 0 27 -13 52 -29 137 -85 795 -459
846 -480 50 -21 76 -25 160 -25 127 0 118 -4 620 286 215 124 406 235 425 246
37 21 404 232 789 453 300 172 356 222 411 364 23 60 23 62 25 589 1 364 4
531 12 533 5 2 19 10 29 18 18 13 19 45 20 1010 l2 996 -23 27 -23 26 -598 1
-599 1 -170 98 c-229 133 -230 133 -271 156 -19 11 -104 60 -187 109 -317 184
-350 198 -468 198 -35 0 -84 -5 -109 -12z"/>
</g>
</svg>
